<mxfile host="65bd71144e">
    <diagram id="VNs7tQm2sjfIK7-Ju7_p" name="Page-1">
        <mxGraphModel dx="1941" dy="771" grid="1" gridSize="10" guides="1" tooltips="1" connect="1" arrows="1" fold="1" page="1" pageScale="1" pageWidth="827" pageHeight="1169" math="0" shadow="0">
            <root>
                <mxCell id="0"/>
                <mxCell id="1" parent="0"/>
                <mxCell id="jvuovKPKVVSrjNQfLiP6-5" value="" style="rounded=0;whiteSpace=wrap;html=1;" parent="1" vertex="1">
                    <mxGeometry x="559" y="250" width="160" height="190" as="geometry"/>
                </mxCell>
                <mxCell id="jvuovKPKVVSrjNQfLiP6-8" style="edgeStyle=orthogonalEdgeStyle;rounded=0;orthogonalLoop=1;jettySize=auto;html=1;exitX=1;exitY=0;exitDx=0;exitDy=27.5;exitPerimeter=0;entryX=0.5;entryY=0;entryDx=0;entryDy=0;" parent="1" source="jvuovKPKVVSrjNQfLiP6-1" target="jvuovKPKVVSrjNQfLiP6-3" edge="1">
                    <mxGeometry relative="1" as="geometry"/>
                </mxCell>
                <mxCell id="jvuovKPKVVSrjNQfLiP6-18" value="Points d'appuis" style="edgeLabel;html=1;align=center;verticalAlign=middle;resizable=0;points=[];" parent="jvuovKPKVVSrjNQfLiP6-8" vertex="1" connectable="0">
                    <mxGeometry x="0.1385" y="1" relative="1" as="geometry">
                        <mxPoint x="19" as="offset"/>
                    </mxGeometry>
                </mxCell>
                <mxCell id="jvuovKPKVVSrjNQfLiP6-19" style="edgeStyle=orthogonalEdgeStyle;rounded=0;orthogonalLoop=1;jettySize=auto;html=1;exitX=0;exitY=0;exitDx=0;exitDy=52.5;exitPerimeter=0;entryX=0.75;entryY=0;entryDx=0;entryDy=0;startArrow=none;startFill=0;" parent="1" source="jvuovKPKVVSrjNQfLiP6-1" target="jvuovKPKVVSrjNQfLiP6-2" edge="1">
                    <mxGeometry relative="1" as="geometry"/>
                </mxCell>
                <mxCell id="jvuovKPKVVSrjNQfLiP6-20" value="Orientation" style="edgeLabel;html=1;align=center;verticalAlign=middle;resizable=0;points=[];" parent="jvuovKPKVVSrjNQfLiP6-19" vertex="1" connectable="0">
                    <mxGeometry x="-0.1704" y="1" relative="1" as="geometry">
                        <mxPoint x="21" as="offset"/>
                    </mxGeometry>
                </mxCell>
                <mxCell id="jvuovKPKVVSrjNQfLiP6-1" value="BDD" style="shape=cylinder3;whiteSpace=wrap;html=1;boundedLbl=1;backgroundOutline=1;size=15;" parent="1" vertex="1">
                    <mxGeometry x="369" y="50" width="60" height="80" as="geometry"/>
                </mxCell>
                <mxCell id="jvuovKPKVVSrjNQfLiP6-7" style="edgeStyle=orthogonalEdgeStyle;rounded=0;orthogonalLoop=1;jettySize=auto;html=1;exitX=0.5;exitY=0;exitDx=0;exitDy=0;entryX=0;entryY=0;entryDx=0;entryDy=27.5;entryPerimeter=0;" parent="1" source="jvuovKPKVVSrjNQfLiP6-2" target="jvuovKPKVVSrjNQfLiP6-1" edge="1">
                    <mxGeometry relative="1" as="geometry"/>
                </mxCell>
                <mxCell id="jvuovKPKVVSrjNQfLiP6-11" value="Points d'appuis" style="edgeLabel;html=1;align=center;verticalAlign=middle;resizable=0;points=[];" parent="jvuovKPKVVSrjNQfLiP6-7" vertex="1" connectable="0">
                    <mxGeometry x="0.3105" y="2" relative="1" as="geometry">
                        <mxPoint as="offset"/>
                    </mxGeometry>
                </mxCell>
                <mxCell id="jvuovKPKVVSrjNQfLiP6-12" style="edgeStyle=orthogonalEdgeStyle;rounded=0;orthogonalLoop=1;jettySize=auto;html=1;entryX=0;entryY=0.5;entryDx=0;entryDy=0;startArrow=none;startFill=0;" parent="1" source="jvuovKPKVVSrjNQfLiP6-2" target="jvuovKPKVVSrjNQfLiP6-3" edge="1">
                    <mxGeometry relative="1" as="geometry"/>
                </mxCell>
                <mxCell id="jvuovKPKVVSrjNQfLiP6-14" value="Launch calcul orientation" style="edgeLabel;html=1;align=center;verticalAlign=middle;resizable=0;points=[];" parent="jvuovKPKVVSrjNQfLiP6-12" vertex="1" connectable="0">
                    <mxGeometry x="-0.28" y="-1" relative="1" as="geometry">
                        <mxPoint x="44" y="-1" as="offset"/>
                    </mxGeometry>
                </mxCell>
                <mxCell id="jvuovKPKVVSrjNQfLiP6-2" value="Client web" style="rounded=0;whiteSpace=wrap;html=1;" parent="1" vertex="1">
                    <mxGeometry x="109" y="270" width="120" height="60" as="geometry"/>
                </mxCell>
                <mxCell id="jvuovKPKVVSrjNQfLiP6-10" style="edgeStyle=orthogonalEdgeStyle;rounded=0;orthogonalLoop=1;jettySize=auto;html=1;entryX=0.5;entryY=0;entryDx=0;entryDy=0;startArrow=classic;startFill=1;" parent="1" source="jvuovKPKVVSrjNQfLiP6-3" target="jvuovKPKVVSrjNQfLiP6-4" edge="1">
                    <mxGeometry relative="1" as="geometry"/>
                </mxCell>
                <mxCell id="jvuovKPKVVSrjNQfLiP6-16" style="edgeStyle=orthogonalEdgeStyle;rounded=0;orthogonalLoop=1;jettySize=auto;html=1;exitX=0.25;exitY=0;exitDx=0;exitDy=0;entryX=1;entryY=0;entryDx=0;entryDy=52.5;entryPerimeter=0;startArrow=none;startFill=0;" parent="1" source="jvuovKPKVVSrjNQfLiP6-3" target="jvuovKPKVVSrjNQfLiP6-1" edge="1">
                    <mxGeometry relative="1" as="geometry"/>
                </mxCell>
                <mxCell id="jvuovKPKVVSrjNQfLiP6-17" value="Orientation" style="edgeLabel;html=1;align=center;verticalAlign=middle;resizable=0;points=[];" parent="jvuovKPKVVSrjNQfLiP6-16" vertex="1" connectable="0">
                    <mxGeometry x="-0.3036" y="-1" relative="1" as="geometry">
                        <mxPoint x="-11" as="offset"/>
                    </mxGeometry>
                </mxCell>
                <mxCell id="jvuovKPKVVSrjNQfLiP6-3" value="API " style="rounded=0;whiteSpace=wrap;html=1;" parent="1" vertex="1">
                    <mxGeometry x="579" y="270" width="120" height="60" as="geometry"/>
                </mxCell>
                <mxCell id="jvuovKPKVVSrjNQfLiP6-4" value="MicMac" style="rounded=0;whiteSpace=wrap;html=1;" parent="1" vertex="1">
                    <mxGeometry x="579" y="360" width="120" height="60" as="geometry"/>
                </mxCell>
                <mxCell id="jvuovKPKVVSrjNQfLiP6-29" value="User" style="shape=umlLifeline;perimeter=lifelinePerimeter;whiteSpace=wrap;html=1;container=1;collapsible=0;recursiveResize=0;outlineConnect=0;" parent="1" vertex="1">
                    <mxGeometry x="-100" y="520" width="100" height="560" as="geometry"/>
                </mxCell>
                <mxCell id="jvuovKPKVVSrjNQfLiP6-30" value="BDD" style="shape=umlLifeline;perimeter=lifelinePerimeter;whiteSpace=wrap;html=1;container=1;collapsible=0;recursiveResize=0;outlineConnect=0;" parent="1" vertex="1">
                    <mxGeometry x="390" y="520" width="100" height="560" as="geometry"/>
                </mxCell>
                <mxCell id="jvuovKPKVVSrjNQfLiP6-62" value="" style="html=1;points=[];perimeter=orthogonalPerimeter;" parent="jvuovKPKVVSrjNQfLiP6-30" vertex="1">
                    <mxGeometry x="45" y="310" width="10" height="30" as="geometry"/>
                </mxCell>
                <mxCell id="jvuovKPKVVSrjNQfLiP6-68" value="Return orientation" style="html=1;verticalAlign=bottom;endArrow=open;dashed=1;endSize=8;rounded=0;" parent="jvuovKPKVVSrjNQfLiP6-30" target="jvuovKPKVVSrjNQfLiP6-33" edge="1">
                    <mxGeometry relative="1" as="geometry">
                        <mxPoint x="49" y="500" as="sourcePoint"/>
                        <mxPoint x="-31" y="500" as="targetPoint"/>
                    </mxGeometry>
                </mxCell>
                <mxCell id="jvuovKPKVVSrjNQfLiP6-69" value="" style="html=1;points=[];perimeter=orthogonalPerimeter;" parent="jvuovKPKVVSrjNQfLiP6-30" vertex="1">
                    <mxGeometry x="45" y="480" width="10" height="20" as="geometry"/>
                </mxCell>
                <mxCell id="jvuovKPKVVSrjNQfLiP6-31" value="&lt;div&gt;API Micmac&lt;/div&gt;" style="shape=umlLifeline;perimeter=lifelinePerimeter;whiteSpace=wrap;html=1;container=1;collapsible=0;recursiveResize=0;outlineConnect=0;" parent="1" vertex="1">
                    <mxGeometry x="530" y="520" width="100" height="560" as="geometry"/>
                </mxCell>
                <mxCell id="jvuovKPKVVSrjNQfLiP6-58" value="" style="html=1;points=[];perimeter=orthogonalPerimeter;" parent="jvuovKPKVVSrjNQfLiP6-31" vertex="1">
                    <mxGeometry x="45" y="280" width="10" height="170" as="geometry"/>
                </mxCell>
                <mxCell id="jvuovKPKVVSrjNQfLiP6-66" value="Return OK" style="html=1;verticalAlign=bottom;endArrow=open;dashed=1;endSize=8;rounded=0;entryX=1.1;entryY=0.783;entryDx=0;entryDy=0;entryPerimeter=0;" parent="jvuovKPKVVSrjNQfLiP6-31" target="jvuovKPKVVSrjNQfLiP6-63" edge="1">
                    <mxGeometry relative="1" as="geometry">
                        <mxPoint x="49" y="450" as="sourcePoint"/>
                        <mxPoint x="-410" y="450" as="targetPoint"/>
                    </mxGeometry>
                </mxCell>
                <mxCell id="jvuovKPKVVSrjNQfLiP6-32" value="MicMac" style="shape=umlLifeline;perimeter=lifelinePerimeter;whiteSpace=wrap;html=1;container=1;collapsible=0;recursiveResize=0;outlineConnect=0;" parent="1" vertex="1">
                    <mxGeometry x="670" y="520" width="100" height="560" as="geometry"/>
                </mxCell>
                <mxCell id="jvuovKPKVVSrjNQfLiP6-57" value="" style="html=1;points=[];perimeter=orthogonalPerimeter;" parent="jvuovKPKVVSrjNQfLiP6-32" vertex="1">
                    <mxGeometry x="45" y="360" width="10" height="40" as="geometry"/>
                </mxCell>
                <mxCell id="jvuovKPKVVSrjNQfLiP6-60" value="Return orientation" style="html=1;verticalAlign=bottom;endArrow=open;dashed=1;endSize=8;rounded=0;" parent="jvuovKPKVVSrjNQfLiP6-32" edge="1">
                    <mxGeometry relative="1" as="geometry">
                        <mxPoint x="45" y="399" as="sourcePoint"/>
                        <mxPoint x="-80" y="400" as="targetPoint"/>
                    </mxGeometry>
                </mxCell>
                <mxCell id="jvuovKPKVVSrjNQfLiP6-33" value="WebApp" style="shape=umlLifeline;perimeter=lifelinePerimeter;whiteSpace=wrap;html=1;container=1;collapsible=0;recursiveResize=0;outlineConnect=0;" parent="1" vertex="1">
                    <mxGeometry x="70" y="520" width="100" height="560" as="geometry"/>
                </mxCell>
                <mxCell id="jvuovKPKVVSrjNQfLiP6-39" value="Get Img" style="html=1;verticalAlign=bottom;endArrow=block;rounded=0;" parent="jvuovKPKVVSrjNQfLiP6-33" target="jvuovKPKVVSrjNQfLiP6-34" edge="1">
                    <mxGeometry width="80" relative="1" as="geometry">
                        <mxPoint x="50" y="80" as="sourcePoint"/>
                        <mxPoint x="130" y="80" as="targetPoint"/>
                    </mxGeometry>
                </mxCell>
                <mxCell id="jvuovKPKVVSrjNQfLiP6-63" value="" style="html=1;points=[];perimeter=orthogonalPerimeter;" parent="jvuovKPKVVSrjNQfLiP6-33" vertex="1">
                    <mxGeometry x="45" y="270" width="10" height="230" as="geometry"/>
                </mxCell>
                <mxCell id="jvuovKPKVVSrjNQfLiP6-72" value="" style="html=1;points=[];perimeter=orthogonalPerimeter;" parent="jvuovKPKVVSrjNQfLiP6-33" vertex="1">
                    <mxGeometry x="45" y="170" width="10" height="20" as="geometry"/>
                </mxCell>
                <mxCell id="jvuovKPKVVSrjNQfLiP6-34" value="&lt;div&gt;Search Engine&lt;/div&gt;&lt;div&gt;Allegoria ou Autre fond&lt;br&gt;&lt;/div&gt;" style="shape=umlLifeline;perimeter=lifelinePerimeter;whiteSpace=wrap;html=1;container=1;collapsible=0;recursiveResize=0;outlineConnect=0;" parent="1" vertex="1">
                    <mxGeometry x="229" y="520" width="100" height="560" as="geometry"/>
                </mxCell>
                <mxCell id="jvuovKPKVVSrjNQfLiP6-43" value="" style="html=1;points=[];perimeter=orthogonalPerimeter;" parent="jvuovKPKVVSrjNQfLiP6-34" vertex="1">
                    <mxGeometry x="45" y="80" width="10" height="40" as="geometry"/>
                </mxCell>
                <mxCell id="jvuovKPKVVSrjNQfLiP6-45" value="Save Point of appuis" style="html=1;verticalAlign=bottom;endArrow=block;rounded=0;" parent="1" target="jvuovKPKVVSrjNQfLiP6-30" edge="1">
                    <mxGeometry width="80" relative="1" as="geometry">
                        <mxPoint x="120" y="710" as="sourcePoint"/>
                        <mxPoint x="200" y="710" as="targetPoint"/>
                    </mxGeometry>
                </mxCell>
                <mxCell id="jvuovKPKVVSrjNQfLiP6-49" value="Send IMG" style="html=1;verticalAlign=bottom;endArrow=open;dashed=1;endSize=8;rounded=0;exitX=0.1;exitY=0.975;exitDx=0;exitDy=0;exitPerimeter=0;" parent="1" source="jvuovKPKVVSrjNQfLiP6-43" target="jvuovKPKVVSrjNQfLiP6-33" edge="1">
                    <mxGeometry relative="1" as="geometry">
                        <mxPoint x="260" y="640" as="sourcePoint"/>
                        <mxPoint x="180" y="640" as="targetPoint"/>
                    </mxGeometry>
                </mxCell>
                <mxCell id="jvuovKPKVVSrjNQfLiP6-50" value="Place points" style="html=1;verticalAlign=bottom;endArrow=block;rounded=0;" parent="1" target="jvuovKPKVVSrjNQfLiP6-33" edge="1">
                    <mxGeometry width="80" relative="1" as="geometry">
                        <mxPoint x="-50" y="690" as="sourcePoint"/>
                        <mxPoint x="30" y="690" as="targetPoint"/>
                    </mxGeometry>
                </mxCell>
                <mxCell id="jvuovKPKVVSrjNQfLiP6-51" value="&lt;div&gt;Launch calcul&lt;/div&gt;" style="html=1;verticalAlign=bottom;endArrow=block;rounded=0;" parent="1" source="jvuovKPKVVSrjNQfLiP6-29" target="jvuovKPKVVSrjNQfLiP6-33" edge="1">
                    <mxGeometry width="80" relative="1" as="geometry">
                        <mxPoint x="-40" y="780" as="sourcePoint"/>
                        <mxPoint x="40" y="780" as="targetPoint"/>
                        <Array as="points">
                            <mxPoint x="80" y="790"/>
                        </Array>
                    </mxGeometry>
                </mxCell>
                <mxCell id="jvuovKPKVVSrjNQfLiP6-52" value="Launch calcul" style="html=1;verticalAlign=bottom;endArrow=block;rounded=0;" parent="1" target="jvuovKPKVVSrjNQfLiP6-31" edge="1">
                    <mxGeometry width="80" relative="1" as="geometry">
                        <mxPoint x="130" y="800" as="sourcePoint"/>
                        <mxPoint x="200" y="800" as="targetPoint"/>
                    </mxGeometry>
                </mxCell>
                <mxCell id="jvuovKPKVVSrjNQfLiP6-53" value="GET points of appuis" style="html=1;verticalAlign=bottom;endArrow=block;rounded=0;" parent="1" target="jvuovKPKVVSrjNQfLiP6-30" edge="1">
                    <mxGeometry width="80" relative="1" as="geometry">
                        <mxPoint x="570" y="830" as="sourcePoint"/>
                        <mxPoint x="560" y="840" as="targetPoint"/>
                        <Array as="points">
                            <mxPoint x="490" y="830"/>
                        </Array>
                    </mxGeometry>
                </mxCell>
                <mxCell id="jvuovKPKVVSrjNQfLiP6-55" value="Return points of appuis" style="html=1;verticalAlign=bottom;endArrow=open;dashed=1;endSize=8;rounded=0;" parent="1" source="jvuovKPKVVSrjNQfLiP6-30" edge="1">
                    <mxGeometry relative="1" as="geometry">
                        <mxPoint x="559" y="870" as="sourcePoint"/>
                        <mxPoint x="570" y="860" as="targetPoint"/>
                        <Array as="points">
                            <mxPoint x="520" y="860"/>
                        </Array>
                    </mxGeometry>
                </mxCell>
                <mxCell id="jvuovKPKVVSrjNQfLiP6-56" value="Launch correct request" style="html=1;verticalAlign=bottom;endArrow=block;rounded=0;" parent="1" target="jvuovKPKVVSrjNQfLiP6-32" edge="1">
                    <mxGeometry width="80" relative="1" as="geometry">
                        <mxPoint x="590" y="880" as="sourcePoint"/>
                        <mxPoint x="659" y="880" as="targetPoint"/>
                    </mxGeometry>
                </mxCell>
                <mxCell id="jvuovKPKVVSrjNQfLiP6-61" value="Save orientation" style="html=1;verticalAlign=bottom;endArrow=block;rounded=0;" parent="1" target="jvuovKPKVVSrjNQfLiP6-30" edge="1">
                    <mxGeometry width="80" relative="1" as="geometry">
                        <mxPoint x="570" y="950" as="sourcePoint"/>
                        <mxPoint x="559" y="940" as="targetPoint"/>
                        <Array as="points">
                            <mxPoint x="540" y="950"/>
                        </Array>
                    </mxGeometry>
                </mxCell>
                <mxCell id="jvuovKPKVVSrjNQfLiP6-67" value="Get orientation" style="html=1;verticalAlign=bottom;endArrow=block;rounded=0;" parent="1" target="jvuovKPKVVSrjNQfLiP6-30" edge="1">
                    <mxGeometry width="80" relative="1" as="geometry">
                        <mxPoint x="130" y="1000" as="sourcePoint"/>
                        <mxPoint x="200" y="1000" as="targetPoint"/>
                    </mxGeometry>
                </mxCell>
                <mxCell id="7" style="edgeStyle=none;html=1;exitX=0.5;exitY=1;exitDx=0;exitDy=0;" edge="1" parent="1" source="2" target="4">
                    <mxGeometry relative="1" as="geometry"/>
                </mxCell>
                <mxCell id="2" value="Geoserver" style="rounded=0;whiteSpace=wrap;html=1;fillColor=#dae8fc;strokeColor=#6c8ebf;" vertex="1" parent="1">
                    <mxGeometry x="-800" y="500" width="120" height="60" as="geometry"/>
                </mxCell>
                <mxCell id="8" style="edgeStyle=none;html=1;exitX=0.5;exitY=1;exitDx=0;exitDy=0;startArrow=none;" edge="1" parent="1" source="19" target="4">
                    <mxGeometry relative="1" as="geometry"/>
                </mxCell>
                <mxCell id="10" style="edgeStyle=none;html=1;exitX=1;exitY=0.5;exitDx=0;exitDy=0;startArrow=classic;startFill=1;" edge="1" parent="1" source="3" target="5">
                    <mxGeometry relative="1" as="geometry"/>
                </mxCell>
                <mxCell id="3" value="BDD Postgres" style="rounded=0;whiteSpace=wrap;html=1;fillColor=#dae8fc;strokeColor=#6c8ebf;" vertex="1" parent="1">
                    <mxGeometry x="-610" y="500" width="120" height="60" as="geometry"/>
                </mxCell>
                <mxCell id="4" value="WebApp" style="rounded=0;whiteSpace=wrap;html=1;fillColor=#dae8fc;strokeColor=#6c8ebf;" vertex="1" parent="1">
                    <mxGeometry x="-610" y="730" width="120" height="60" as="geometry"/>
                </mxCell>
                <mxCell id="9" style="edgeStyle=none;html=1;exitX=0.5;exitY=1;exitDx=0;exitDy=0;entryX=0.75;entryY=0;entryDx=0;entryDy=0;" edge="1" parent="1" source="5" target="4">
                    <mxGeometry relative="1" as="geometry"/>
                </mxCell>
                <mxCell id="5" value="API MicMac" style="rounded=0;whiteSpace=wrap;html=1;fillColor=#dae8fc;strokeColor=#6c8ebf;" vertex="1" parent="1">
                    <mxGeometry x="-420" y="500" width="120" height="60" as="geometry"/>
                </mxCell>
                <mxCell id="11" value="Volume" style="shape=cylinder3;whiteSpace=wrap;html=1;boundedLbl=1;backgroundOutline=1;size=8;fillColor=#d5e8d4;strokeColor=#82b366;" vertex="1" parent="1">
                    <mxGeometry x="-520" y="545" width="70" height="45" as="geometry"/>
                </mxCell>
                <mxCell id="17" style="edgeStyle=none;html=1;entryX=0.5;entryY=1;entryDx=0;entryDy=0;startArrow=classic;startFill=1;endArrow=classic;endFill=1;" edge="1" parent="1" source="12" target="15">
                    <mxGeometry relative="1" as="geometry"/>
                </mxCell>
                <mxCell id="12" value="User" style="shape=umlActor;verticalLabelPosition=bottom;verticalAlign=top;html=1;outlineConnect=0;" vertex="1" parent="1">
                    <mxGeometry x="-565" y="910" width="30" height="60" as="geometry"/>
                </mxCell>
                <mxCell id="15" value="80" style="rounded=0;whiteSpace=wrap;html=1;" vertex="1" parent="1">
                    <mxGeometry x="-565" y="790" width="30" height="30" as="geometry"/>
                </mxCell>
                <mxCell id="18" value="80" style="rounded=0;whiteSpace=wrap;html=1;" vertex="1" parent="1">
                    <mxGeometry x="-375" y="560" width="30" height="30" as="geometry"/>
                </mxCell>
                <mxCell id="19" value="5432" style="rounded=0;whiteSpace=wrap;html=1;" vertex="1" parent="1">
                    <mxGeometry x="-565" y="560" width="30" height="30" as="geometry"/>
                </mxCell>
                <mxCell id="20" value="" style="edgeStyle=none;html=1;exitX=0.5;exitY=1;exitDx=0;exitDy=0;endArrow=none;" edge="1" parent="1" source="3" target="19">
                    <mxGeometry relative="1" as="geometry">
                        <mxPoint x="-550" y="560" as="sourcePoint"/>
                        <mxPoint x="-550" y="730" as="targetPoint"/>
                    </mxGeometry>
                </mxCell>
                <mxCell id="21" value="Volume" style="shape=cylinder3;whiteSpace=wrap;html=1;boundedLbl=1;backgroundOutline=1;size=8;fillColor=#d5e8d4;strokeColor=#82b366;" vertex="1" parent="1">
                    <mxGeometry x="-710" y="540" width="70" height="45" as="geometry"/>
                </mxCell>
                <mxCell id="22" value="8080" style="rounded=0;whiteSpace=wrap;html=1;" vertex="1" parent="1">
                    <mxGeometry x="-755" y="560" width="30" height="30" as="geometry"/>
                </mxCell>
            </root>
        </mxGraphModel>
    </diagram>
</mxfile>